<?xml version="1.0" encoding="UTF-8" standalone="no"?> <svg xmlns:dc="http://purl.org/dc/elements/1.1/" xmlns:cc="http://creativecommons.org/ns#" xmlns:rdf="http://www.w3.org/1999/02/22-rdf-syntax-ns#" xmlns:svg="http://www.w3.org/2000/svg" xmlns="http://www.w3.org/2000/svg" xmlns:sodipodi="http://sodipodi.sourceforge.net/DTD/sodipodi-0.dtd" xmlns:inkscape="http://www.inkscape.org/namespaces/inkscape" width="512" height="512" viewBox="0 0 135.46666 135.46667" version="1.1" id="svg8" inkscape:version="1.0.1 (3bc2e813f5, 2020-09-07)" sodipodi:docname="logo_cut_512.svg"><defs id="defs2"></defs><metadata id="metadata5"></metadata><g inkscape:label="Layer 1" inkscape:groupmode="layer" id="layer1"><path id="path835" style="fill:#ffffff;stroke:none;stroke-width:0.786164" d="M 255.83398 6.3925781 A 249.60693 249.60693 0 0 0 6.3925781 256 A 249.60693 249.60693 0 0 0 256 505.60742 A 249.60693 249.60693 0 0 0 505.60742 256 A 249.60693 249.60693 0 0 0 256 6.3925781 A 249.60693 249.60693 0 0 0 255.83398 6.3925781 z M 210.75 47.369141 L 325.60156 47.369141 C 362.90398 47.369141 381.55664 72.34108 381.55664 122.28516 L 381.55664 161.71484 C 381.55664 211.65893 362.90398 236.63086 325.60156 236.63086 L 260.81445 236.63086 L 260.81445 185.37109 L 325.60156 185.37109 C 337.38127 185.37109 343.27148 177.48666 343.27148 161.71484 L 343.27148 122.28516 C 343.27148 106.51335 337.38127 98.626953 325.60156 98.626953 L 249.03516 98.626953 L 249.03516 394.34766 L 210.75 394.34766 L 210.75 47.369141 z M 97.777344 101.52539 C 98.286841 101.53738 98.802468 101.72433 99.162109 102.08398 C 99.713592 102.63544 99.736973 102.85171 99.880859 107.19141 C 99.97678 109.68495 100.14379 114.47926 100.26367 117.83594 C 100.40753 121.19261 100.71869 129.72823 100.98242 136.77734 C 101.62979 153.92037 101.91809 160.15387 102.08594 160.60938 C 102.27775 161.13728 103.2368 161.35418 104.17188 161.06641 L 104.93945 160.84961 L 105.10742 158.11719 C 105.20332 156.60668 105.39574 149.70062 105.51562 142.77148 C 105.85129 127.23485 106.23341 112.39331 106.44922 106.71094 C 106.61706 102.63503 106.66588 102.41981 107.19336 101.98828 C 107.93662 101.38886 108.72743 101.41313 109.4707 102.06055 L 110.09375 102.61133 L 110.33398 111.48242 C 110.76555 127.52255 111.02923 137.71207 111.29297 148.52539 C 111.43685 154.39958 111.60585 159.55479 111.67773 159.98633 C 111.77364 160.5377 111.96498 160.85025 112.39648 160.99414 C 113.35554 161.35374 114.36173 161.28087 114.86523 160.77734 C 115.36874 160.27384 115.32139 161.80897 115.96875 131.02344 C 116.56816 103.54661 116.59155 102.89964 116.95117 102.32422 C 117.11901 102.03657 117.5038 101.74857 117.76758 101.65234 C 118.41494 101.46046 119.58888 101.91594 119.80469 102.44336 C 120.06843 103.1147 121.02762 115.19874 121.36328 121.91211 C 121.50716 124.47757 121.77112 128.14635 121.96289 130.06445 C 122.49037 135.1714 124.19326 154.99871 124.45703 159.31445 C 124.60091 161.35242 124.8151 164.80642 124.95898 166.98828 C 125.10287 169.17012 125.43939 173.19727 125.70312 175.97852 C 126.15867 180.36618 126.18174 181.32477 125.91797 183.38672 C 125.58231 186.26388 124.74403 189.28455 123.61719 191.6582 C 122.82597 193.36053 117.09496 201.849 113.73828 206.30859 C 111.62837 209.11382 110.19106 211.99017 109.42383 215.03516 L 108.82422 217.45703 L 109.23047 229.32617 C 109.44626 235.84773 109.7828 244.95851 109.97461 249.58594 C 110.16642 254.18938 110.43037 261.64535 110.57422 266.12891 C 110.71808 270.61248 111.0532 279.98721 111.29297 286.98828 C 111.5567 293.96538 111.86783 304.17988 112.01172 309.64648 C 112.25148 318.75744 113.11598 342.97351 113.69141 355.80078 C 114.43467 372.70405 115.13021 393.94776 114.98633 394.88281 C 114.21909 399.48624 111.93993 404.13617 109.39844 406.24609 C 107.48033 407.85251 106.25902 408.28516 103.59766 408.28516 C 101.43979 408.30923 101.22239 408.26164 99.496094 407.39844 C 97.290278 406.31946 95.925244 404.90497 94.558594 402.26758 C 92.568536 398.3834 91.944507 394.78705 92.328125 389.22461 C 92.472008 387.33046 92.639051 383.61399 92.710938 380.97656 C 92.854794 376.39715 93.861658 351.98903 94.628906 335.18164 C 95.300249 320.17246 95.469249 316.21536 95.708984 307.84766 C 95.852848 303.22023 96.116783 295.95582 96.308594 291.66406 C 96.500412 287.3723 96.764354 281.33122 96.908203 278.23828 C 97.052052 275.14533 97.410396 266.60966 97.746094 259.29688 C 98.753122 236.54339 98.898064 232.05907 98.921875 224.65039 C 98.945856 217.88907 98.898036 217.33729 98.394531 215.53906 C 97.387533 211.91866 96.044654 209.56964 92.927734 205.94922 C 89.666962 202.16096 84.823075 195.20764 83.744141 192.83398 C 82.761116 190.67612 81.418216 186.31216 81.058594 184.1543 C 80.890934 183.00343 80.844129 181.47016 80.916016 180.10352 C 81.011929 178.88073 81.298727 174.27686 81.5625 169.86523 C 81.826247 165.45358 82.137401 160.32274 82.28125 158.47656 C 82.401148 156.6304 82.61787 152.48094 82.761719 149.24414 C 82.905568 146.00733 83.289865 139.2236 83.601562 134.14062 C 83.93723 129.05766 84.46313 120.64231 84.798828 115.43945 C 85.59005 102.63606 85.6151 102.5157 86.142578 101.98828 C 86.718004 101.41229 87.917294 101.41342 88.46875 101.96484 C 88.852349 102.34846 88.94652 102.97165 89.066406 106.23242 C 89.162331 108.31835 89.234375 111.43387 89.234375 113.16016 C 89.234375 116.08528 89.451311 121.98504 90.314453 143.25195 C 90.506294 148.07118 90.722435 153.60959 90.818359 155.59961 C 90.986197 159.86743 91.153694 160.58664 92.136719 160.99414 C 93.167702 161.42567 94.990107 161.16105 95.517578 160.51367 C 95.925336 160.01017 95.949219 158.49933 95.949219 131.23828 C 95.949219 102.80238 95.948214 102.49126 96.427734 102.01172 C 96.763404 101.67601 97.267847 101.5134 97.777344 101.52539 z M 421.17773 102.2168 C 423.05913 102.28662 424.91212 103.02681 426.0293 104.29492 C 427.3578 105.81665 428.49342 109.12548 429.26758 113.71484 C 429.63121 115.98536 429.6312 128.06223 429.2207 152.48242 C 428.88228 172.43401 428.64115 180.71891 428.03711 192.82031 C 427.77156 198.20676 427.43187 206.44417 427.28711 211.1543 C 427.04556 219.29436 425.98212 243.1342 425.7168 246.44336 C 425.64491 247.31292 425.33083 250.88751 424.99219 254.41406 C 424.09791 263.90678 423.88108 269.36555 423.73633 285.93555 C 423.56723 305.33158 424.00311 315.09101 426.20117 341.37109 C 426.65986 346.87833 427.21431 354.05167 427.4082 357.3125 C 427.60066 360.57337 428.03635 365.62222 428.375 368.54492 C 428.68798 371.46763 429.12328 375.7671 429.33984 378.08594 C 429.53354 380.40475 429.87094 383.83353 430.06445 385.69336 C 430.81348 392.93973 431.19611 398.32699 431.10352 399.94531 C 430.93446 402.21583 430.21053 403.85791 428.64062 405.35547 C 425.74206 408.08489 421.53784 409.22153 415.33008 408.93164 C 410.18523 408.69013 406.75579 407.5065 404.19531 405.11523 C 402.31073 403.30363 401.80469 402.0233 401.80469 398.73828 C 401.80469 394.58367 402.7462 379.36532 404.58203 353.56836 C 405.25781 344.2447 405.57151 338.52029 405.91016 329.41406 C 406.00759 327.28848 406.27374 321.63611 406.53906 316.85352 C 407.43368 300.71833 407.41046 289.80114 406.49219 279.65625 C 405.57429 269.43891 405.21237 267.19238 402.53125 254.19727 C 399.4636 239.34224 399.36663 238.76264 398.13477 225.30859 C 397.50638 218.40041 397.48318 217.45774 397.50586 204.80078 C 397.53005 197.53029 397.67556 188.54453 397.82031 184.87305 C 398.73828 160.81516 399.17319 155.38144 400.83984 146.34766 C 401.15377 144.60854 401.85374 140.7432 402.38477 137.74805 C 403.76161 130.09107 406.56479 120.09062 408.85938 114.80078 C 411.56417 108.56995 414.79862 104.29566 417.91406 102.8457 C 418.91005 102.37525 420.04952 102.17493 421.17773 102.2168 z M 194.07422 117.6582 L 208.22656 117.66211 L 208.25977 168.95898 L 194.07422 168.91016 C 182.2945 168.91016 176.40625 176.80241 176.40625 192.57422 L 176.40625 389.72266 C 176.40625 405.49447 182.2945 413.37891 194.07422 413.37891 L 282.42578 413.37891 C 294.20549 413.37891 300.09375 405.75397 300.09375 390.50781 L 300.17773 305.7168 L 260.92773 305.54883 L 260.92773 256.26172 L 337.97852 256.49414 L 338.37891 390.50781 C 338.52641 439.92578 319.72626 464.63086 282.42383 464.63086 L 194.07422 464.63086 C 156.77179 464.63086 138.12695 439.66677 138.12695 389.72266 L 138.12695 192.57422 C 138.12695 142.63013 156.77179 117.64497 194.07422 117.6582 z M 323.65234 117.6582 L 323.65234 168.91016 L 251.57031 168.70117 L 251.61719 117.80273 L 323.65234 117.6582 z " transform="scale(0.26458333)"></path></g></svg> 